<svg xmlns="http://www.w3.org/2000/svg" viewBox="0 0 593.7 146.74"><defs><style>.cls-1,.cls-2{fill:#fff;}.cls-1{fill-rule:evenodd;}</style></defs><g id="OBJECTS"><path class="cls-1" d="M32.2,11.91A73.84,73.84,0,1,0,147.65,75.32,69.69,69.69,0,1,1,32.2,11.91Z" transform="translate(0)"/><path class="cls-1" d="M114.71,113.77A62.31,62.31,0,1,0,17.29,60.26a58.8,58.8,0,1,1,97.42,53.51Z" transform="translate(0)"/><path class="cls-1" d="M105.4,58.27h0a10.09,10.09,0,0,1-1.91-.38,15.58,15.58,0,0,0-7.66.38c-1.53.51-1.65.39-1.78-1.15a51.82,51.82,0,0,0-3.18-12.49,33.1,33.1,0,0,0-7.53-11.1,1.75,1.75,0,0,1-.89-1c.38-.39.64-.13,1-.13,10.83,2.41,20.15,12.24,21.8,23.2,0,.25.13.39.13.64v2Z" transform="translate(0)"/><path class="cls-1" d="M43.43,58.27h0a13.67,13.67,0,0,0,2-.38,15.52,15.52,0,0,1,7.65.38c1.54.51,1.54.39,1.79-1.15a42.37,42.37,0,0,1,3.19-12.49,29.79,29.79,0,0,1,7.52-11.1c.26-.25.77-.5.77-1-.25-.39-.64-.13-1-.13-10.83,2.41-20,12.24-21.68,23.2-.12.25-.12.39-.25.64v2Z" transform="translate(0)"/><path class="cls-1" d="M59.36,83.13h0l3.83-.51c0,2.55.51,4.21,1.41,5.1A4.27,4.27,0,0,0,68,89.13a4.7,4.7,0,0,0,2.67-.77,3.72,3.72,0,0,0,1.67-2,15.26,15.26,0,0,0,.37-4.08V59.93H77.1V82a16.87,16.87,0,0,1-.9,6.38A8.34,8.34,0,0,1,73,91.81,10.35,10.35,0,0,1,68,93c-2.94,0-5.1-.9-6.5-2.56s-2.3-4-2.18-7.27Z" transform="translate(0)"/><path class="cls-1" d="M75.56,25.12h0c1.28,1.27,0,4.21.77,5.73.37.77,1.66.52,2.55.9a18,18,0,0,1,6.37,6C89.08,43,90.87,49,91.89,55.2a16.89,16.89,0,0,1,.5,2.69c0,.64,0,1-.89.64a60.93,60.93,0,0,0-14.28-2.94,39.84,39.84,0,0,0-11.73,1,44.27,44.27,0,0,0-6.89,1.91c-.89.25-1.15-.14-1-.9a43.85,43.85,0,0,1,.9-5.74C59.75,46.54,61.54,41.32,65.1,37c1.66-2.3,3.57-4.46,6.38-5.36,2.29-.89,2.29-.77,2.42-3.32,0-1.15-.5-2.3.52-3.18Z" transform="translate(0)"/><path class="cls-1" d="M115.08,94.94c-.7-1.67-3.33-2.63-6.51-2.35a15.75,15.75,0,0,0-2.5.55c-3.74,1.11-23.29,7.77-23.42,8h-.41l.27.28c2.21,1.93,3.33,3.88,2.77,5.4-.69,2.36-3.89,3.88-9,4.3A66.43,66.43,0,0,1,59,109.91H61.3c5,0,9.56,0,13.16-.28,5.7-.41,8.32-1.66,8.74-3.87.14-1.39-.69-2.5-2.64-3.47s-6.37-1.67-10.66-2.23c-2.92-.54-5.55-1-7.49-1.38-6.79-1.8-13.72-3.6-21.76-2.91a17.2,17.2,0,0,0-3.74.56,156.07,156.07,0,0,0-18.58,4.29l-.69.15,9.28,13.44a32.93,32.93,0,0,1,5.14-.83,22.18,22.18,0,0,1,6.23.14c2.64.4,9.15,1.65,15.25,2.9,6.37,1.53,12.47,2.64,14.84,2.91a12.23,12.23,0,0,0,4,.14c3.06-.27,6.38-1.93,9.3-3.6,1-.56,2.08-1,2.91-1.52l27.72-15c3-1.93,3-3.45,2.77-4.43Z" transform="translate(0)"/><path class="cls-2" d="M203.13,36.78c9.18,0,14.14,3.88,14.14,9.52,0,6.74-6,10-12,11.09,5.71,1.15,10.95,4.49,10.95,10.27,0,8.7-8.37,13.32-19.72,13.32H176.34l.47-2.38c5.24-.4,5.92-1.22,6.94-6.39L189,45.76c1.08-5.58.47-6.12-5-6.53l.61-2.45ZM192.59,71.94c-1,5.24,1.5,6.26,4.83,6.26,5.44,0,9.11-5.1,9.11-11s-3.88-8.09-9.52-8.09h-2Zm5-15.84c7.55,0,10.68-4.42,10.68-9.66,0-4.83-2.72-6.73-6.19-6.73-2.79,0-3.26.27-3.94,3.87L195.72,56.1Z" transform="translate(0)"/><path class="cls-2" d="M279.83,55.08c0,15-10.94,26.92-25.29,26.92-11.29,0-18.77-7.27-18.77-19.17,0-13.87,10.47-27,25.36-27C272.69,35.83,279.83,43.45,279.83,55.08Zm-34,9.79c0,8.5,2.72,14.14,9.17,14.14,9.39,0,14.76-13.73,14.76-25.84,0-9.11-2.45-14.35-9-14.35C252,38.82,245.84,51.81,245.84,64.87Z" transform="translate(0)"/><path class="cls-2" d="M346.48,39.23c-4.56.27-5.65,1.43-6.4,4.22-.61,2.24-1.29,5-2.51,11.56L332.4,81.73h-3.81L308.94,47l-3.2,16.53A103.94,103.94,0,0,0,304,74.25c-.28,3.2,1.08,4,6.32,4.35L309.76,81H292.55L293,78.6c4.28-.4,5.85-1.22,6.8-4.21a109.41,109.41,0,0,0,2.58-11.29l3.47-16.59c.61-3,.2-4.63-.95-5.65s-2.72-1.49-5.17-1.63l.61-2.45H313l18.5,31.35,2.51-13a114.81,114.81,0,0,0,1.84-11.5c.34-3.33-1.43-4.15-6.19-4.35l.54-2.45h16.87Z" transform="translate(0)"/><path class="cls-2" d="M407.54,36.78c9.93,0,15.44,4.63,15.44,12.11,0,9.18-7.48,14.75-17.21,14.75a12.25,12.25,0,0,1-2.17-.27l-4.42-1-1.91,10.27c-.88,4.76-.74,5.44,5.51,6L402.17,81H381.09l.61-2.38c4.9-.4,5.71-.95,6.8-6.32L393.6,46c1.09-5.71.89-6.32-4.83-6.73l.62-2.45ZM399.72,59.7a11.48,11.48,0,0,0,3.95.68c6.05,0,9.92-5,9.92-12.44,0-6.06-2.65-8.3-6.52-8.3-2.66,0-3.68.41-4.36,4.28Z" transform="translate(0)"/><path class="cls-2" d="M472.62,69.29A88,88,0,0,1,467.93,81H434.2l.47-2.38c5.24-.4,5.85-1,6.87-6.32L446.85,45c.95-4.83.34-5.37-5-5.78l.61-2.45H463.3l-.47,2.45c-5.58.34-6.12,1-7,5.85l-5.23,26.65C449.63,76.9,450,78,454,78h3.46c2.93,0,5.1-.34,7.28-2.31a34.87,34.87,0,0,0,5.44-7.28Z" transform="translate(0)"/><path class="cls-2" d="M526.54,81H507l.61-2.38c4.76-.47,4.9-1.36,4.49-4.55-.34-2.32-.75-4.83-1.16-7.55H498.05c-1.29,2.38-2.92,5-4.08,7.48-1.43,3-1.29,4,4.49,4.62L497.92,81H481.19l.61-2.38c5.1-.68,5.78-1.15,9.66-7.75l19.78-34.2,3.27-.48c2.72,16.8,4.69,27.27,6.12,35.7.88,5.37,1.29,6.12,6.59,6.73ZM508.12,48H508c-2.65,5-5.65,10.27-8.23,15.1h10.68Z" transform="translate(0)"/><path class="cls-2" d="M592.57,39.23c-4.55.27-5.64,1.43-6.39,4.22-.61,2.24-1.29,5-2.52,11.56L578.5,81.73h-3.81L555,47l-3.2,16.53a108,108,0,0,0-1.77,10.74c-.27,3.2,1.09,4,6.33,4.35L555.85,81h-17.2l.48-2.38c4.28-.4,5.84-1.22,6.8-4.21a112.27,112.27,0,0,0,2.58-11.29L552,46.51c.61-3,.2-4.63-1-5.65s-2.73-1.49-5.17-1.63l.61-2.45h12.65l18.49,31.35,2.52-13A110.33,110.33,0,0,0,582,43.58c.34-3.33-1.42-4.15-6.18-4.35l.54-2.45h16.86Z" transform="translate(0)"/><path class="cls-2" d="M183.89,108.93l-2.95,8.12h-3.6l9.6-25.46h4.2l9.71,25.46h-3.73L194,108.93Zm9.4-2.65-2.92-7.61c-.61-1.62-1-3-1.41-4.26h-.07c-.39,1.34-.8,2.69-1.34,4.19l-2.9,7.68Z" transform="translate(0)"/><path class="cls-2" d="M229.7,113.55a10.22,10.22,0,0,0,4.89,1.42c2.68,0,3.83-1.25,3.83-2.74,0-1.67-1.11-2.47-3.74-3.27-3.61-1.08-5.26-2.95-5.24-5.17,0-2.94,2.44-5.46,6.74-5.46a9.68,9.68,0,0,1,4.88,1.19l-.84,2.48a8.41,8.41,0,0,0-4.19-1.16c-2.1,0-3.25,1.13-3.25,2.57,0,1.61,1.28,2.28,3.87,3.11,3.5,1.11,5.12,2.67,5.13,5.46,0,3.09-2.52,5.53-7.27,5.53a11.87,11.87,0,0,1-5.65-1.35Z" transform="translate(0)"/><path class="cls-2" d="M271.19,113.55a10.19,10.19,0,0,0,4.89,1.42c2.68,0,3.83-1.25,3.83-2.74,0-1.67-1.12-2.47-3.75-3.27-3.6-1.08-5.25-2.95-5.24-5.17,0-2.94,2.45-5.46,6.74-5.46a9.72,9.72,0,0,1,4.89,1.19L281.7,102a8.33,8.33,0,0,0-4.18-1.16c-2.1,0-3.25,1.13-3.25,2.57,0,1.61,1.28,2.28,3.87,3.11,3.49,1.11,5.12,2.67,5.13,5.46,0,3.09-2.52,5.53-7.28,5.53a11.83,11.83,0,0,1-5.64-1.35Z" transform="translate(0)"/><path class="cls-2" d="M329.85,112.05c0,1.88,0,3.53.16,5h-3.07l-.17-3.34h-.1a7.53,7.53,0,0,1-6.76,3.8c-2.75,0-6.91-1.31-6.91-8.34V98.78h3.45v9.75c0,3.69,1.29,6.14,4.62,6.14a5.53,5.53,0,0,0,5-3.25,4.79,4.79,0,0,0,.35-1.73V98.78h3.44Z" transform="translate(0)"/><path class="cls-2" d="M361.05,104.8c0-2.36,0-4.21-.15-6h3l.13,3.83h.12a5.93,5.93,0,0,1,5.51-4.28,4.28,4.28,0,0,1,1,.11v3.18a5.68,5.68,0,0,0-1.31-.12c-2.51,0-4.25,1.79-4.76,4.4a8.15,8.15,0,0,0-.14,1.51v9.64h-3.44Z" transform="translate(0)"/><path class="cls-2" d="M410.61,117.05l-.33-2.43h-.1a7.81,7.81,0,0,1-6.23,2.89c-4.11,0-6-2.81-6-5.25,0-4.38,4-7,12-6.87v-.33c0-1.15-.34-4.25-4.56-4.23a10.1,10.1,0,0,0-5.34,1.5l-.8-2.26a12.57,12.57,0,0,1,6.62-1.74c6.22,0,7.52,4.29,7.52,7.8v6.47a27.32,27.32,0,0,0,.3,4.45Zm-.55-9.28c-4.3-.11-8.61.66-8.61,4a3.06,3.06,0,0,0,3.39,3.16,5.28,5.28,0,0,0,5-3.16,3.18,3.18,0,0,0,.18-1Z" transform="translate(0)"/><path class="cls-2" d="M444.4,103.79c0-1.82,0-3.48-.15-5h3.06l.2,3.28h.1a7.46,7.46,0,0,1,6.66-3.73c2.5,0,7.11,1.39,7.11,8.28v10.44h-3.44V106.93c0-3.21-1.35-5.79-4.79-5.79a5.46,5.46,0,0,0-5,3.56,4.63,4.63,0,0,0-.26,1.51v10.84H444.4Z" transform="translate(0)"/><path class="cls-2" d="M506.82,116.32a14.7,14.7,0,0,1-6,1.19c-6,0-9.93-3.93-9.93-9.36,0-5.76,4.24-9.82,10.68-9.82a12.41,12.41,0,0,1,5.3,1.1l-.79,2.62a9.16,9.16,0,0,0-4.49-1c-4.58,0-7.2,3-7.19,6.87,0,4.22,3.09,6.84,7.06,6.84a11.44,11.44,0,0,0,4.72-1Z" transform="translate(0)"/><path class="cls-2" d="M538.05,108.63c.08,4.12,3.14,6.2,6.89,6.2a14.35,14.35,0,0,0,5.74-1l.62,2.44a16.81,16.81,0,0,1-6.79,1.26c-6,0-9.77-3.8-9.77-9.24s3.51-9.94,9.41-9.94c6.7,0,8.28,5.66,8.28,8.77a6.32,6.32,0,0,1-.13,1.53Zm11.05-2.47c0-1.57-.7-5.41-5.21-5.41-3.88,0-5.49,3.16-5.8,5.41Z" transform="translate(0)"/><path class="cls-2" d="M581.62,113.55a10.19,10.19,0,0,0,4.89,1.42c2.68,0,3.83-1.25,3.83-2.74,0-1.67-1.12-2.47-3.75-3.27-3.6-1.08-5.25-2.95-5.24-5.17,0-2.94,2.45-5.46,6.75-5.46A9.71,9.71,0,0,1,593,99.52l-.84,2.48a8.41,8.41,0,0,0-4.19-1.16c-2.1,0-3.25,1.13-3.25,2.57,0,1.61,1.28,2.28,3.87,3.11,3.49,1.11,5.12,2.67,5.13,5.46,0,3.09-2.52,5.53-7.27,5.53a11.84,11.84,0,0,1-5.65-1.35Z" transform="translate(0)"/></g></svg>