<?xml version="1.0" encoding="utf-8"?>
<!-- Generator: Adobe Illustrator 24.1.1, SVG Export Plug-In . SVG Version: 6.00 Build 0)  -->
<svg version="1.1" id="Calque_1" xmlns="http://www.w3.org/2000/svg" xmlns:xlink="http://www.w3.org/1999/xlink" x="0px" y="0px"
	 viewBox="0 0 120 120" style="enable-background:new 0 0 120 120;" xml:space="preserve">
<style type="text/css">
	.st0{fill-rule:evenodd;clip-rule:evenodd;fill:#FFFFFF;}
	.st1{fill:#FFFFFF;}
</style>
<path class="st0" d="M101.4,70.9c-0.6-1.4-2.8-2.2-5.6-2c-0.7,0.1-1.4,0.3-2.1,0.4c-3.2,1-19.8,6.7-20,6.8h-0.4l0.3,0.3
	c1.9,1.6,2.8,3.3,2.4,4.6c-0.6,2-3.3,3.3-7.6,3.6c-5,0.3-9.9-0.1-14.7-1.1h2c4.3,0,8.2,0,11.2-0.3c4.9-0.4,7.1-1.4,7.5-3.3
	c0.1-1.2-0.6-2.1-2.2-2.9c-1.6-0.8-5.4-1.4-9.1-1.9c-2.5-0.4-4.7-0.8-6.4-1.2c-5.9-1.5-11.8-3-18.6-2.5c-1.1,0-2.1,0.2-3.2,0.4
	c-5.3,0.9-10.7,2.1-15.8,3.6l-0.6,0.1l7.9,11.5c1.4-0.4,2.8-0.5,4.3-0.7c1.8-0.2,3.6-0.2,5.3,0.1c2.2,0.4,7.8,1.4,13,2.5
	c5.4,1.3,10.7,2.2,12.6,2.5c1.2,0.2,2.3,0.3,3.4,0.1c2.6-0.3,5.4-1.7,7.9-3.1c0.8-0.4,1.8-0.8,2.5-1.3l23.7-12.5
	C101.6,73.1,101.6,71.8,101.4,70.9L101.4,70.9z"/>
<path class="st1" d="M80.5,46.5L63.2,30.7c-0.8-0.7-1.9-0.7-2.7,0L43.1,46.5c-0.8,0.7-0.9,2-0.1,2.8c0.4,0.4,0.9,0.6,1.4,0.6h2.8
	v15.9c0,0.6,0.5,1.2,1.2,1.2h9.5c0.6,0,1.2-0.5,1.2-1.2v-9.7h5.6v9.6c0,0.6,0.5,1.2,1.2,1.2h9.5c0.6,0,1.2-0.5,1.2-1.2V50h2.8
	c1.1,0,2-0.9,2-2C81.1,47.4,80.9,46.9,80.5,46.5z"/>
<polygon class="st1" points="73.8,35.2 70.4,32.3 70.4,27 73.8,27 "/>
<g>
	<path class="st0" d="M26.2,10.1C5.7,24-4.7,49.9,2.1,75.1c8.6,32,41.5,51,73.5,42.4c26.2-7,43.6-30.3,44.5-56
		c-3.6,21.1-19.1,39.3-41.2,45.2c-30.2,8.1-61.3-9.8-69.4-40C3.8,45.5,10.9,23.9,26.2,10.1L26.2,10.1z"/>
	<path class="st0" d="M93.2,92.8c17.3-11.8,26.1-33.6,20.3-54.9c-7.2-27-35-43-62-35.8C29.5,8,14.8,27.6,14.1,49.3
		c3.1-17.8,16.1-33.1,34.7-38.1c25.5-6.8,51.7,8.3,58.5,33.8C112.1,62.9,106.1,81.2,93.2,92.8L93.2,92.8z"/>
</g>
</svg>
