<?xml version="1.0" encoding="utf-8"?>
<!-- Generator: Adobe Illustrator 24.1.1, SVG Export Plug-In . SVG Version: 6.00 Build 0)  -->
<svg version="1.1" id="Calque_1" xmlns="http://www.w3.org/2000/svg" xmlns:xlink="http://www.w3.org/1999/xlink" x="0px" y="0px"
	 viewBox="0 0 120 120" style="enable-background:new 0 0 120 120;" xml:space="preserve">
<style type="text/css">
	.st0{fill-rule:evenodd;clip-rule:evenodd;fill:#FFFFFF;}
	.st1{fill:#FFFFFF;}
</style>
<g>
	<path class="st0" d="M26.2,10.1C5.7,24-4.7,49.9,2.1,75.1c8.6,32,41.5,51,73.5,42.4c26.2-7,43.6-30.3,44.5-56
		c-3.6,21.1-19.1,39.3-41.2,45.2c-30.2,8.1-61.3-9.8-69.4-40C3.8,45.5,10.9,23.9,26.2,10.1L26.2,10.1z"/>
	<path class="st0" d="M93.2,92.8c17.3-11.8,26.1-33.6,20.3-54.9c-7.2-27-35-43-62-35.8C29.5,8,14.8,27.6,14.1,49.3
		c3.1-17.8,16.1-33.1,34.7-38.1c25.5-6.8,51.7,8.3,58.5,33.8C112.1,62.9,106.1,81.2,93.2,92.8L93.2,92.8z"/>
</g>
<path class="st0" d="M96.2,70.2c-0.5-1.2-2.5-1.9-4.8-1.8c-0.6,0.1-1.2,0.2-1.9,0.4c-2.8,0.9-17.3,5.8-17.5,6h-0.3L72,75
	c1.6,1.4,2.5,2.9,2.1,4c-0.5,1.8-2.9,2.9-6.7,3.2c-4.3,0.2-8.7-0.1-12.9-0.9h1.8c3.7,0,7.1,0,9.8-0.2c4.3-0.3,6.2-1.2,6.5-2.9
	c0.1-1-0.5-1.9-1.9-2.6S66,74.4,62.8,74c-2.2-0.4-4.1-0.7-5.6-1c-5.3-1.3-10.4-2.6-16.4-2.2c-0.9,0-1.9,0.2-2.8,0.4
	c-4.7,0.8-9.3,1.9-13.8,3.2l-0.5,0.1l6.9,10c1.2-0.3,2.6-0.5,3.8-0.6c1.6-0.2,3.1-0.2,4.7,0.1c1.9,0.3,6.8,1.2,11.3,2.2
	c4.7,1.2,9.3,1.9,11,2.2c1,0.2,2,0.2,2.9,0.1c2.2-0.2,4.7-1.5,6.9-2.7c0.7-0.4,1.6-0.7,2.2-1.2l20.7-11C96.4,72,96.4,70.9,96.2,70.2
	L96.2,70.2z"/>
<path class="st1" d="M82.2,29.8c-5.3-5.3-13.8-5.3-19.1,0l0,0l0,0c-5.3-5.3-13.8-5.3-19.1,0l0,0c-5.3,5.3-5.3,13.8,0,19.1L62.1,67
	c0.5,0.5,1.4,0.5,1.9,0l0,0l18.1-18.1C87.4,43.6,87.4,35.1,82.2,29.8z M63.1,64.1L45.9,46.9c-4.2-4.2-4.2-11,0-15.3
	c2-2,4.8-3.2,7.7-3.2s5.6,1.1,7.6,3.2l1,1c0.5,0.5,1.4,0.5,1.9,0l0,0l1-1c4.2-4.2,11-4.2,15.3,0l0,0c4.2,4.2,4.2,11,0,15.3
	L63.1,64.1z"/>
<rect x="61" y="38.2" class="st1" width="4.3" height="12.5"/>
<rect x="56.8" y="42.4" class="st1" width="12.5" height="4.3"/>
</svg>
