<?xml version="1.0" encoding="utf-8"?>
<!-- Generator: Adobe Illustrator 24.1.1, SVG Export Plug-In . SVG Version: 6.00 Build 0)  -->
<svg version="1.1" id="Calque_1" xmlns="http://www.w3.org/2000/svg" xmlns:xlink="http://www.w3.org/1999/xlink" x="0px" y="0px"
	 viewBox="0 0 120 120" style="enable-background:new 0 0 120 120;" xml:space="preserve">
<style type="text/css">
	.st0{fill-rule:evenodd;clip-rule:evenodd;fill:#FFFFFF;}
	.st1{fill:#FFFFFF;}
</style>
<g>
	<path class="st0" d="M26.2,10.1C5.7,24-4.7,49.9,2.1,75.1c8.6,32,41.5,51,73.5,42.4c26.2-7,43.6-30.3,44.5-56
		c-3.6,21.1-19.1,39.3-41.2,45.2c-30.2,8.1-61.3-9.8-69.4-40C3.8,45.5,10.9,23.9,26.2,10.1L26.2,10.1z"/>
	<path class="st0" d="M93.2,92.8c17.3-11.8,26.1-33.6,20.3-54.9c-7.2-27-35-43-62-35.8C29.5,8,14.8,27.6,14.1,49.3
		c3.1-17.8,16.1-33.1,34.7-38.1c25.5-6.8,51.7,8.3,58.5,33.8C112.1,62.9,106.1,81.2,93.2,92.8L93.2,92.8z"/>
</g>
<g>
	<path class="st0" d="M96.2,70.2c-0.5-1.2-2.5-1.9-4.8-1.8c-0.6,0.1-1.2,0.2-1.9,0.4c-2.8,0.9-17.3,5.8-17.5,6h-0.3L72,75
		c1.6,1.4,2.5,2.9,2.1,4c-0.5,1.8-2.9,2.9-6.7,3.2c-4.3,0.2-8.7-0.1-12.9-0.9h1.8c3.7,0,7.1,0,9.8-0.2c4.3-0.3,6.2-1.2,6.5-2.9
		c0.1-1-0.5-1.9-1.9-2.6S66,74.4,62.8,74c-2.2-0.4-4.1-0.7-5.6-1c-5.3-1.3-10.4-2.6-16.4-2.2c-0.9,0-1.9,0.2-2.8,0.4
		c-4.7,0.8-9.3,1.9-13.8,3.2l-0.5,0.1l6.9,10c1.2-0.3,2.6-0.5,3.8-0.6c1.6-0.2,3.1-0.2,4.7,0.1c1.9,0.3,6.8,1.2,11.3,2.2
		c4.7,1.2,9.3,1.9,11,2.2c1,0.2,2,0.2,2.9,0.1c2.2-0.2,4.7-1.5,6.9-2.7c0.7-0.4,1.6-0.7,2.2-1.2l20.7-11
		C96.4,72,96.4,70.9,96.2,70.2L96.2,70.2z"/>
	<path class="st1" d="M81.7,36.7H66.9v-8.6c0-0.5-0.3-0.8-0.8-0.8H47.3c-0.5,0-0.8,0.3-0.8,0.8v38.4c0,0.5,0.3,0.8,0.8,0.8h34.4
		c0.5,0,0.8-0.3,0.8-0.8v-29C82.5,37,82.2,36.7,81.7,36.7z M66.9,38.3h14V58h-14V38.3z M54.4,65.7v-6.3h4.7v6.3H54.4z M59.8,57.9
		h-6.2c-0.5,0-0.8,0.3-0.8,0.8v7.1h-4.7V28.9h17.2v36.8h-4.7v-7.1C60.7,58.2,60.4,57.9,59.8,57.9C59.9,57.9,59.9,57.9,59.8,57.9
		L59.8,57.9z M66.9,65.7v-6.3h14v6.3H66.9z"/>
	<path class="st1" d="M56,33.6h1.6c0.5,0,0.8-0.3,0.8-0.8v-1.6c0-0.5-0.3-0.8-0.8-0.8H56c-0.5,0-0.8,0.3-0.8,0.8v1.6
		C55.2,33.2,55.6,33.6,56,33.6z"/>
	<path class="st1" d="M56,39.1h1.6c0.5,0,0.8-0.3,0.8-0.8v-1.6c0-0.5-0.3-0.8-0.8-0.8H56c-0.5,0-0.8,0.3-0.8,0.8v1.6
		C55.2,38.7,55.6,39.1,56,39.1z"/>
	<path class="st1" d="M56,44.5h1.6c0.5,0,0.8-0.3,0.8-0.8v-1.6c0-0.5-0.3-0.8-0.8-0.8H56c-0.5,0-0.8,0.3-0.8,0.8v1.6
		C55.2,44.2,55.6,44.5,56,44.5z"/>
	<path class="st1" d="M56,50h1.6c0.5,0,0.8-0.3,0.8-0.8v-1.6c0-0.5-0.3-0.8-0.8-0.8H56c-0.5,0-0.8,0.3-0.8,0.8v1.6
		C55.2,49.6,55.6,50,56,50z"/>
	<path class="st1" d="M56,55.4h1.6c0.5,0,0.8-0.3,0.8-0.8v-1.6c0-0.5-0.3-0.8-0.8-0.8H56c-0.5,0-0.8,0.3-0.8,0.8v1.6
		C55.2,55.1,55.6,55.4,56,55.4z"/>
	<path class="st1" d="M50.4,33.6H52c0.5,0,0.8-0.3,0.8-0.8v-1.6c0-0.5-0.3-0.8-0.8-0.8h-1.6c-0.5,0-0.8,0.3-0.8,0.8v1.6
		C49.7,33.2,50.1,33.6,50.4,33.6z"/>
	<path class="st1" d="M50.4,39.1H52c0.5,0,0.8-0.3,0.8-0.8v-1.6c0-0.5-0.3-0.8-0.8-0.8h-1.6c-0.5,0-0.8,0.3-0.8,0.8v1.6
		C49.7,38.7,50.1,39.1,50.4,39.1z"/>
	<path class="st1" d="M50.4,44.5H52c0.5,0,0.8-0.3,0.8-0.8v-1.6c0-0.5-0.3-0.8-0.8-0.8h-1.6c-0.5,0-0.8,0.3-0.8,0.8v1.6
		C49.7,44.2,50.1,44.5,50.4,44.5z"/>
	<path class="st1" d="M50.4,50H52c0.5,0,0.8-0.3,0.8-0.8v-1.6c0-0.5-0.3-0.8-0.8-0.8h-1.6c-0.5,0-0.8,0.3-0.8,0.8v1.6
		C49.7,49.6,50.1,50,50.4,50z"/>
	<path class="st1" d="M50.4,55.4H52c0.5,0,0.8-0.3,0.8-0.8v-1.6c0-0.5-0.3-0.8-0.8-0.8h-1.6c-0.5,0-0.8,0.3-0.8,0.8v1.6
		C49.7,55.1,50.1,55.4,50.4,55.4z"/>
	<path class="st1" d="M63,30.5h-1.6c-0.5,0-0.8,0.3-0.8,0.8v1.6c0,0.5,0.3,0.8,0.8,0.8H63c0.5,0,0.8-0.3,0.8-0.8v-1.6
		C63.8,30.8,63.4,30.5,63,30.5z"/>
	<path class="st1" d="M63,36h-1.6c-0.5,0-0.8,0.3-0.8,0.8v1.6c0,0.5,0.3,0.8,0.8,0.8H63c0.5,0,0.8-0.3,0.8-0.8v-1.6
		C63.8,36.3,63.4,36,63,36z"/>
	<path class="st1" d="M63,41.4h-1.6c-0.5,0-0.8,0.3-0.8,0.8v1.6c0,0.5,0.3,0.8,0.8,0.8H63c0.5,0,0.8-0.3,0.8-0.8v-1.6
		C63.8,41.8,63.4,41.4,63,41.4z"/>
	<path class="st1" d="M63,46.9h-1.6c-0.5,0-0.8,0.3-0.8,0.8v1.6c0,0.5,0.3,0.8,0.8,0.8H63c0.5,0,0.8-0.3,0.8-0.8v-1.6
		C63.8,47.2,63.4,46.9,63,46.9z"/>
	<path class="st1" d="M63,52.3h-1.6c-0.5,0-0.8,0.3-0.8,0.8v1.6c0,0.5,0.3,0.8,0.8,0.8H63c0.5,0,0.8-0.3,0.8-0.8v-1.6
		C63.8,52.6,63.4,52.3,63,52.3z"/>
	<path class="st1" d="M77.4,41.4h-1.6c-0.5,0-0.8,0.3-0.8,0.8v1.6c0,0.5,0.3,0.8,0.8,0.8h1.6c0.5,0,0.8-0.3,0.8-0.8v-1.6
		C78.2,41.8,77.9,41.4,77.4,41.4z"/>
	<path class="st1" d="M77.4,46.9h-1.6c-0.5,0-0.8,0.3-0.8,0.8v1.6c0,0.5,0.3,0.8,0.8,0.8h1.6c0.5,0,0.8-0.3,0.8-0.8v-1.6
		C78.2,47.2,77.9,46.9,77.4,46.9z"/>
	<path class="st1" d="M77.4,52.3h-1.6c-0.5,0-0.8,0.3-0.8,0.8v1.6c0,0.5,0.3,0.8,0.8,0.8h1.6c0.5,0,0.8-0.3,0.8-0.8v-1.6
		C78.2,52.6,77.9,52.3,77.4,52.3z"/>
	<path class="st1" d="M71.9,41.4h-1.6c-0.5,0-0.8,0.3-0.8,0.8v1.6c0,0.5,0.3,0.8,0.8,0.8h1.6c0.5,0,0.8-0.3,0.8-0.8v-1.6
		C72.7,41.8,72.4,41.4,71.9,41.4z"/>
	<path class="st1" d="M71.9,46.9h-1.6c-0.5,0-0.8,0.3-0.8,0.8v1.6c0,0.5,0.3,0.8,0.8,0.8h1.6c0.5,0,0.8-0.3,0.8-0.8v-1.6
		C72.7,47.2,72.4,46.9,71.9,46.9z"/>
	<path class="st1" d="M71.9,52.3h-1.6c-0.5,0-0.8,0.3-0.8,0.8v1.6c0,0.5,0.3,0.8,0.8,0.8h1.6c0.5,0,0.8-0.3,0.8-0.8v-1.6
		C72.7,52.6,72.4,52.3,71.9,52.3z"/>
</g>
</svg>
