<?xml version="1.0" encoding="utf-8"?>
<!-- Generator: Adobe Illustrator 24.1.1, SVG Export Plug-In . SVG Version: 6.00 Build 0)  -->
<svg version="1.1" id="Calque_1" xmlns="http://www.w3.org/2000/svg" xmlns:xlink="http://www.w3.org/1999/xlink" x="0px" y="0px"
	 viewBox="0 0 120 120" style="enable-background:new 0 0 120 120;" xml:space="preserve">
<style type="text/css">
	.st0{fill-rule:evenodd;clip-rule:evenodd;fill:#FFFFFF;}
	.st1{fill:#FFFFFF;}
</style>
<g>
	<path class="st0" d="M26.2,10.1C5.7,24-4.7,49.9,2.1,75.1c8.6,32,41.5,51,73.5,42.4c26.2-7,43.6-30.3,44.5-56
		c-3.6,21.1-19.1,39.3-41.2,45.2c-30.2,8.1-61.3-9.8-69.4-40C3.8,45.5,10.9,23.9,26.2,10.1L26.2,10.1z"/>
	<path class="st0" d="M93.2,92.8c17.3-11.8,26.1-33.6,20.3-54.9c-7.2-27-35-43-62-35.8C29.5,8,14.8,27.6,14.1,49.3
		c3.1-17.8,16.1-33.1,34.7-38.1c25.5-6.8,51.7,8.3,58.5,33.8C112.1,62.9,106.1,81.2,93.2,92.8L93.2,92.8z"/>
</g>
<path class="st0" d="M96.2,70.2c-0.5-1.2-2.5-1.9-4.8-1.8c-0.6,0.1-1.2,0.2-1.9,0.4c-2.8,0.9-17.3,5.8-17.5,6h-0.3L72,75
	c1.6,1.4,2.5,2.9,2.1,4c-0.5,1.8-2.9,2.9-6.7,3.2c-4.3,0.2-8.7-0.1-12.9-0.9h1.8c3.7,0,7.1,0,9.8-0.2c4.3-0.3,6.2-1.2,6.5-2.9
	c0.1-1-0.5-1.9-1.9-2.6S66,74.4,62.8,74c-2.2-0.4-4.1-0.7-5.6-1c-5.3-1.3-10.4-2.6-16.4-2.2c-0.9,0-1.9,0.2-2.8,0.4
	c-4.7,0.8-9.3,1.9-13.8,3.2l-0.5,0.1l6.9,10c1.2-0.3,2.6-0.5,3.8-0.6c1.6-0.2,3.1-0.2,4.7,0.1c1.9,0.3,6.8,1.2,11.3,2.2
	c4.7,1.2,9.3,1.9,11,2.2c1,0.2,2,0.2,2.9,0.1c2.2-0.2,4.7-1.5,6.9-2.7c0.7-0.4,1.6-0.7,2.2-1.2l20.7-11C96.4,72,96.4,70.9,96.2,70.2
	L96.2,70.2z"/>
<path class="st1" d="M72.1,34.9c-0.4,0.1-0.7,0.4-0.7,0.8c0,0.3,0.3,0.7,0.7,0.7c0.4,0.1,0.7-0.2,0.8-0.7c0.1-0.4-0.2-0.7-0.7-0.8
	C72.2,34.9,72.1,34.9,72.1,34.9z"/>
<path class="st1" d="M72.8,32c-3.5-1.1-7.3-0.7-10.4,1.2c-3.1-1.9-6.9-2.3-10.4-1.2c-6.2,2-9.2,11.1-4.1,18.4c2.4,3.5,2.7,6.1,3.1,9
	c0.2,2.3,0.7,4.5,1.6,6.8c0.7,1.7,1.7,3.6,3.2,3.6l0,0c1.2,0,2.1-1.2,3.1-3.9c0.5-1.5,0.8-3,1.1-4.5c0.6-2.7,1.1-5.6,2.6-5.6l0,0
	c1.4,0,2,2.9,2.5,5.6c0.2,1.5,0.7,3,1.1,4.5c1,2.6,1.9,3.8,3.1,3.9l0,0c1.5,0,2.5-1.9,3.2-3.6c0.8-2.1,1.3-4.4,1.5-6.6
	c0.3-2.9,0.7-5.7,3.1-9.1C81.9,43,78.9,33.9,72.8,32z M75.6,49.5c-2.6,3.7-3,6.8-3.3,9.7c-0.2,2.1-0.7,4.2-1.4,6.2
	c-1.1,2.6-1.7,2.7-1.8,2.7l0,0c0,0-0.7-0.1-1.7-2.9c-0.5-1.4-0.8-2.8-1.1-4.2c-0.2-1.5-0.7-3.1-1.2-4.5c-0.7-1.6-1.7-2.4-2.8-2.4
	l0,0c-1.2,0-2.2,0.8-2.9,2.4c-0.6,1.5-0.9,3-1.2,4.5c-0.2,1.4-0.6,2.8-1.1,4.2c-1.1,2.8-1.7,2.9-1.7,2.9s-0.7-0.1-1.8-2.7
	c-0.8-2-1.3-4.1-1.5-6.4c-0.3-2.9-0.7-5.9-3.3-9.7c-4.5-6.6-1.8-14.4,3.4-16.1c3.2-1,6.8-0.5,9.6,1.3c0.2,0.2,0.6,0.2,0.8,0
	c2.8-1.8,6.3-2.3,9.5-1.3C77.5,35,80,43,75.6,49.5z"/>
<path class="st1" d="M75.9,39.1c-0.2-0.7-0.6-1.3-1-1.9c-0.2-0.4-0.7-0.5-1-0.3c-0.4,0.2-0.5,0.7-0.3,1c0,0.1,0.1,0.1,0.1,0.2
	c0.3,0.5,0.6,1,0.7,1.6c0.7,2.3,0.6,4.8-0.5,6.9c-0.2,0.3-0.1,0.8,0.2,1.1c0.3,0.2,0.8,0.1,1.1-0.2c0-0.1,0.1-0.1,0.1-0.2
	C76.6,44.7,76.8,41.8,75.9,39.1z"/>
<path class="st1" d="M59.6,41.6l-3.1-1l-1-3.1c-0.1-0.3-0.4-0.5-0.7-0.5c-0.3,0-0.6,0.2-0.7,0.5l-1,3.1l-3.1,1
	c-0.3,0.1-0.5,0.4-0.5,0.7s0.2,0.6,0.5,0.7l3.1,1l1,3.1c0.1,0.3,0.4,0.5,0.7,0.5c0.3,0,0.6-0.2,0.7-0.5l1-3.1l3.1-1
	c0.3-0.1,0.5-0.4,0.5-0.7S59.9,41.7,59.6,41.6z M55.7,42.7c-0.2,0.1-0.4,0.2-0.5,0.5l-0.4,1.2l-0.4-1.2c-0.1-0.2-0.2-0.4-0.5-0.5
	l-1.2-0.4l1.2-0.4c0.2-0.1,0.4-0.2,0.5-0.5l0.4-1.2l0.4,1.2c0.1,0.2,0.2,0.4,0.5,0.5l1.2,0.4L55.7,42.7z"/>
</svg>
