<?xml version="1.0" encoding="utf-8"?>
<!-- Generator: Adobe Illustrator 24.1.1, SVG Export Plug-In . SVG Version: 6.00 Build 0)  -->
<svg version="1.1" id="Calque_1" xmlns="http://www.w3.org/2000/svg" xmlns:xlink="http://www.w3.org/1999/xlink" x="0px" y="0px"
	 viewBox="0 0 120 120" style="enable-background:new 0 0 120 120;" xml:space="preserve">
<style type="text/css">
	.st0{fill-rule:evenodd;clip-rule:evenodd;fill:#004687;}
	.st1{fill-rule:evenodd;clip-rule:evenodd;fill:#ADCB53;}
	.st2{fill:#ADCB53;}
</style>
<g>
	<path class="st0" d="M26.2,10.1C5.7,24-4.7,49.9,2.1,75.1c8.6,32,41.5,51,73.5,42.4c26.2-7,43.6-30.3,44.5-56
		c-3.6,21.1-19.1,39.3-41.2,45.2c-30.2,8.1-61.3-9.8-69.4-40C3.8,45.5,10.9,23.9,26.2,10.1L26.2,10.1z"/>
	<path class="st0" d="M93.2,92.8c17.3-11.8,26.1-33.6,20.3-54.9c-7.2-27-35-43-62-35.8C29.5,8,14.8,27.6,14.1,49.3
		c3.1-17.8,16.1-33.1,34.7-38.1c25.5-6.8,51.7,8.3,58.5,33.8C112.1,62.9,106.1,81.2,93.2,92.8L93.2,92.8z"/>
</g>
<path class="st1" d="M97.7,70.3c-0.6-1.3-2.6-2-5-1.9c-0.6,0.1-1.3,0.2-1.9,0.4c-2.9,0.9-18,6.1-18.2,6.2h-0.3l0.2,0.2
	c1.7,1.5,2.6,3,2.2,4.2c-0.6,1.9-3,3-7,3.3c-4.5,0.2-9-0.1-13.4-1h1.9c3.9,0,7.4,0,10.2-0.2c4.4-0.3,6.5-1.3,6.8-3
	c0.1-1.1-0.6-1.9-2-2.7c-1.5-0.7-4.9-1.3-8.2-1.7c-2.3-0.4-4.3-0.7-5.8-1.1c-5.4-1.4-10.8-2.7-17-2.3c-1,0-1.9,0.2-2.9,0.4
	c-4.8,0.8-9.7,1.9-14.4,3.3l-0.6,0.1l7.2,10.4c1.3-0.3,2.7-0.6,4-0.6c1.6-0.2,3.2-0.2,4.8,0.1c2,0.3,7.1,1.3,11.8,2.3
	c4.9,1.2,9.7,2,11.5,2.3c1.1,0.2,2.1,0.2,3.1,0.1c2.3-0.2,4.9-1.5,7.2-2.8c0.7-0.4,1.6-0.7,2.3-1.2l21.6-11.4
	C98,72.3,98,71.2,97.7,70.3z"/>
<path class="st2" d="M74.7,59.2c-0.4-0.4-1-0.4-1.4,0l0,0l0,0c-0.4,0.4-0.4,1,0,1.4l0,0c0.2,0.2,0.4,0.2,0.6,0.2
	c0.2,0,0.5-0.1,0.6-0.3l0,0C75.1,60.2,75.1,59.5,74.7,59.2L74.7,59.2z"/>
<path class="st2" d="M85,49.1h-2.6v-2.6c0-0.6-0.4-1-1-1c-0.6,0-1,0.4-1,1v2.6h-2.6c-0.6,0-1,0.4-1,1c0,0.6,0.4,1,1,1l0,0h2.6v2.5
	c0,0.6,0.4,1,1,1c0.6,0,1-0.4,1-1l0,0v-2.6H85c0.6,0,1-0.4,1-1C86,49.5,85.6,49.1,85,49.1L85,49.1z"/>
<path class="st2" d="M84.7,42.1c-0.8-6.6-6.4-11.6-13.1-11.6c-3.3,0-6.5,1.2-8.9,3.6c-2.4-2.3-5.6-3.6-8.9-3.6
	c-7.4,0.1-13.3,6.1-13.2,13.5c0.1,1.7,0.5,3.4,1.3,4.9h-0.3c-0.6,0.1-0.9,0.5-0.9,1.1c0.1,0.5,0.4,0.8,0.9,0.9H43
	c2.4,3.8,5.3,7.3,8.5,10.4c3.4,3.3,7,6.5,10.7,9.4c0.2,0.2,0.4,0.2,0.6,0.2c0.2,0,0.4-0.1,0.6-0.2c0,0,4.1-3.2,8.6-7.4
	c0.4-0.4,0.4-1,0.1-1.4c-0.4-0.4-1-0.4-1.4-0.1c-3.4,3.3-6.6,5.8-7.9,6.9c-3.5-2.7-6.8-5.7-9.9-8.7c-2.8-2.7-5.4-5.7-7.6-9h8.6
	c0.4,0,0.8-0.3,1-0.7l1.7-5.9l4.7,15c0.2,0.4,0.5,0.6,0.9,0.6c0.4,0,0.8-0.2,0.9-0.6l2.6-8.3h4.3c0.6-0.1,0.9-0.5,0.9-1.1
	c-0.1-0.5-0.4-0.8-0.9-0.9h-5.1c-0.4,0-0.8,0.2-0.9,0.6l-1.9,6l-4.7-15.1c-0.2-0.4-0.5-0.6-0.9-0.6s-0.8,0.3-0.9,0.7l-2.3,8.2h-9.2
	c-0.9-1.5-1.4-3.2-1.5-4.9c-0.1-6.3,4.9-11.5,11.2-11.6c3.2,0,6.1,1.3,8.2,3.6c0.2,0.2,0.4,0.3,0.7,0.3c0.2,0,0.6-0.1,0.7-0.3
	c2.1-2.3,5.1-3.6,8.2-3.6c5.4,0.1,10,3.9,11,9.2c-0.4-0.1-0.7-0.1-1.1-0.1c-4.7,0-8.5,3.8-8.5,8.5s3.8,8.5,8.5,8.5
	c4.7,0,8.5-3.8,8.5-8.5C90.1,46.6,88,43.4,84.7,42.1z M81.6,56.6c-3.6,0-6.5-2.9-6.5-6.5c0-3.6,2.9-6.5,6.5-6.5s6.5,2.9,6.5,6.5l0,0
	C88.1,53.6,85.1,56.6,81.6,56.6z"/>
</svg>
